<?xml version="1.0" encoding="utf-8" standalone="no"?>
<!DOCTYPE svg PUBLIC "-//W3C//DTD SVG 1.1//EN"
  "http://www.w3.org/Graphics/SVG/1.1/DTD/svg11.dtd">
<svg xmlns:xlink="http://www.w3.org/1999/xlink" width="846.29375pt" height="497.195312pt" viewBox="0 0 846.29375 497.195312" xmlns="http://www.w3.org/2000/svg" version="1.1">
 <metadata>
  <rdf:RDF xmlns:dc="http://purl.org/dc/elements/1.1/" xmlns:cc="http://creativecommons.org/ns#" xmlns:rdf="http://www.w3.org/1999/02/22-rdf-syntax-ns#">
   <cc:Work>
    <dc:type rdf:resource="http://purl.org/dc/dcmitype/StillImage"/>
    <dc:date>2024-03-06T09:45:15.684193</dc:date>
    <dc:format>image/svg+xml</dc:format>
    <dc:creator>
     <cc:Agent>
      <dc:title>Matplotlib v3.8.1, https://matplotlib.org/</dc:title>
     </cc:Agent>
    </dc:creator>
   </cc:Work>
  </rdf:RDF>
 </metadata>
 <defs>
  <style type="text/css">*{stroke-linejoin: round; stroke-linecap: butt}</style>
 </defs>
 <g id="figure_1">
  <g id="patch_1">
   <path d="M -0 497.195312 
L 846.29375 497.195312 
L 846.29375 0 
L -0 0 
L -0 497.195312 
z
" style="fill: none"/>
  </g>
  <g id="axes_1">
   <g id="patch_2">
    <path d="M 41.003125 186.823437 
L 811.653125 186.823437 
L 811.653125 17.798437 
L 41.003125 17.798437 
z
" style="fill: #ffffff"/>
   </g>
   <g id="patch_3">
    <path d="M 76.03267 186.823437 
L 101.355233 186.823437 
L 101.355233 169.038501 
L 76.03267 169.038501 
z
" clip-path="url(#p22491c1701)" style="fill: #87ceeb"/>
   </g>
   <g id="patch_4">
    <path d="M 160.441214 186.823437 
L 185.763777 186.823437 
L 185.763777 143.757118 
L 160.441214 143.757118 
z
" clip-path="url(#p22491c1701)" style="fill: #87ceeb"/>
   </g>
   <g id="patch_5">
    <path d="M 244.849757 186.823437 
L 270.17232 186.823437 
L 270.17232 144.26963 
L 244.849757 144.26963 
z
" clip-path="url(#p22491c1701)" style="fill: #87ceeb"/>
   </g>
   <g id="patch_6">
    <path d="M 329.2583 186.823437 
L 354.580863 186.823437 
L 354.580863 87.839747 
L 329.2583 87.839747 
z
" clip-path="url(#p22491c1701)" style="fill: #87ceeb"/>
   </g>
   <g id="patch_7">
    <path d="M 413.666844 186.823437 
L 438.989406 186.823437 
L 438.989406 156.776456 
L 413.666844 156.776456 
z
" clip-path="url(#p22491c1701)" style="fill: #87ceeb"/>
   </g>
   <g id="patch_8">
    <path d="M 498.075387 186.823437 
L 523.39795 186.823437 
L 523.39795 59.414447 
L 498.075387 59.414447 
z
" clip-path="url(#p22491c1701)" style="fill: #87ceeb"/>
   </g>
   <g id="patch_9">
    <path d="M 582.48393 186.823437 
L 607.806493 186.823437 
L 607.806493 116.058513 
L 582.48393 116.058513 
z
" clip-path="url(#p22491c1701)" style="fill: #87ceeb"/>
   </g>
   <g id="patch_10">
    <path d="M 666.892473 186.823437 
L 692.215036 186.823437 
L 692.215036 47.060609 
L 666.892473 47.060609 
z
" clip-path="url(#p22491c1701)" style="fill: #87ceeb"/>
   </g>
   <g id="patch_11">
    <path d="M 751.301017 186.823437 
L 776.62358 186.823437 
L 776.62358 31.532256 
L 751.301017 31.532256 
z
" clip-path="url(#p22491c1701)" style="fill: #87ceeb"/>
   </g>
   <g id="patch_12">
    <path d="M 76.03267 169.038501 
L 101.355233 169.038501 
L 101.355233 168.605761 
L 76.03267 168.605761 
z
" clip-path="url(#p22491c1701)" style="fill: #90ee90"/>
   </g>
   <g id="patch_13">
    <path d="M 160.441214 143.757118 
L 185.763777 143.757118 
L 185.763777 142.735372 
L 160.441214 142.735372 
z
" clip-path="url(#p22491c1701)" style="fill: #90ee90"/>
   </g>
   <g id="patch_14">
    <path d="M 244.849757 144.26963 
L 270.17232 144.26963 
L 270.17232 142.851206 
L 244.849757 142.851206 
z
" clip-path="url(#p22491c1701)" style="fill: #90ee90"/>
   </g>
   <g id="patch_15">
    <path d="M 329.2583 87.839747 
L 354.580863 87.839747 
L 354.580863 85.940502 
L 329.2583 85.940502 
z
" clip-path="url(#p22491c1701)" style="fill: #90ee90"/>
   </g>
   <g id="patch_16">
    <path d="M 413.666844 156.776456 
L 438.989406 156.776456 
L 438.989406 156.091286 
L 413.666844 156.091286 
z
" clip-path="url(#p22491c1701)" style="fill: #90ee90"/>
   </g>
   <g id="patch_17">
    <path d="M 498.075387 59.414447 
L 523.39795 59.414447 
L 523.39795 58.59705 
L 498.075387 58.59705 
z
" clip-path="url(#p22491c1701)" style="fill: #90ee90"/>
   </g>
   <g id="patch_18">
    <path d="M 582.48393 116.058513 
L 607.806493 116.058513 
L 607.806493 114.628069 
L 582.48393 114.628069 
z
" clip-path="url(#p22491c1701)" style="fill: #90ee90"/>
   </g>
   <g id="patch_19">
    <path d="M 666.892473 47.060609 
L 692.215036 47.060609 
L 692.215036 46.892321 
L 666.892473 46.892321 
z
" clip-path="url(#p22491c1701)" style="fill: #90ee90"/>
   </g>
   <g id="patch_20">
    <path d="M 751.301017 31.532256 
L 776.62358 31.532256 
L 776.62358 28.5151 
L 751.301017 28.5151 
z
" clip-path="url(#p22491c1701)" style="fill: #90ee90"/>
   </g>
   <g id="patch_21">
    <path d="M 76.03267 168.605761 
L 101.355233 168.605761 
L 101.355233 168.373129 
L 76.03267 168.373129 
z
" clip-path="url(#p22491c1701)" style="fill: #fa8072"/>
   </g>
   <g id="patch_22">
    <path d="M 160.441214 142.735372 
L 185.763777 142.735372 
L 185.763777 142.403746 
L 160.441214 142.403746 
z
" clip-path="url(#p22491c1701)" style="fill: #fa8072"/>
   </g>
   <g id="patch_23">
    <path d="M 244.849757 142.851206 
L 270.17232 142.851206 
L 270.17232 140.23285 
L 244.849757 140.23285 
z
" clip-path="url(#p22491c1701)" style="fill: #fa8072"/>
   </g>
   <g id="patch_24">
    <path d="M 329.2583 85.940502 
L 354.580863 85.940502 
L 354.580863 70.453096 
L 329.2583 70.453096 
z
" clip-path="url(#p22491c1701)" style="fill: #fa8072"/>
   </g>
   <g id="patch_25">
    <path d="M 413.666844 156.091286 
L 438.989406 156.091286 
L 438.989406 154.215374 
L 413.666844 154.215374 
z
" clip-path="url(#p22491c1701)" style="fill: #fa8072"/>
   </g>
   <g id="patch_26">
    <path d="M 498.075387 58.59705 
L 523.39795 58.59705 
L 523.39795 57.815008 
L 498.075387 57.815008 
z
" clip-path="url(#p22491c1701)" style="fill: #fa8072"/>
   </g>
   <g id="patch_27">
    <path d="M 582.48393 114.628069 
L 607.806493 114.628069 
L 607.806493 113.910372 
L 582.48393 113.910372 
z
" clip-path="url(#p22491c1701)" style="fill: #fa8072"/>
   </g>
   <g id="patch_28">
    <path d="M 666.892473 46.892321 
L 692.215036 46.892321 
L 692.215036 46.724034 
L 666.892473 46.724034 
z
" clip-path="url(#p22491c1701)" style="fill: #fa8072"/>
   </g>
   <g id="patch_29">
    <path d="M 751.301017 28.5151 
L 776.62358 28.5151 
L 776.62358 25.847247 
L 751.301017 25.847247 
z
" clip-path="url(#p22491c1701)" style="fill: #fa8072"/>
   </g>
   <g id="matplotlib.axis_1">
    <g id="xtick_1">
     <g id="line2d_1">
      <defs>
       <path id="m7a698e7347" d="M 0 0 
L 0 3.5 
" style="stroke: #000000; stroke-width: 0.8"/>
      </defs>
      <g>
       <use xlink:href="#m7a698e7347" x="88.693952" y="186.823437" style="stroke: #000000; stroke-width: 0.8"/>
      </g>
     </g>
     <g id="text_1">
      <!-- Kuželj-Gorski kotar - Kupa -->
      <g transform="translate(91.653327 322.623437) rotate(-90) scale(0.1 -0.1)">
       <defs>
        <path id="DejaVuSans-4b" d="M 628 4666 
L 1259 4666 
L 1259 2694 
L 3353 4666 
L 4166 4666 
L 1850 2491 
L 4331 0 
L 3500 0 
L 1259 2247 
L 1259 0 
L 628 0 
L 628 4666 
z
" transform="scale(0.015625)"/>
        <path id="DejaVuSans-75" d="M 544 1381 
L 544 3500 
L 1119 3500 
L 1119 1403 
Q 1119 906 1312 657 
Q 1506 409 1894 409 
Q 2359 409 2629 706 
Q 2900 1003 2900 1516 
L 2900 3500 
L 3475 3500 
L 3475 0 
L 2900 0 
L 2900 538 
Q 2691 219 2414 64 
Q 2138 -91 1772 -91 
Q 1169 -91 856 284 
Q 544 659 544 1381 
z
M 1991 3584 
L 1991 3584 
z
" transform="scale(0.015625)"/>
        <path id="DejaVuSans-17e" d="M 353 3500 
L 3084 3500 
L 3084 2975 
L 922 459 
L 3084 459 
L 3084 0 
L 275 0 
L 275 525 
L 2438 3041 
L 353 3041 
L 353 3500 
z
M 1457 3944 
L 691 5119 
L 1126 5119 
L 1688 4353 
L 2251 5119 
L 2685 5119 
L 1919 3944 
L 1457 3944 
z
" transform="scale(0.015625)"/>
        <path id="DejaVuSans-65" d="M 3597 1894 
L 3597 1613 
L 953 1613 
Q 991 1019 1311 708 
Q 1631 397 2203 397 
Q 2534 397 2845 478 
Q 3156 559 3463 722 
L 3463 178 
Q 3153 47 2828 -22 
Q 2503 -91 2169 -91 
Q 1331 -91 842 396 
Q 353 884 353 1716 
Q 353 2575 817 3079 
Q 1281 3584 2069 3584 
Q 2775 3584 3186 3129 
Q 3597 2675 3597 1894 
z
M 3022 2063 
Q 3016 2534 2758 2815 
Q 2500 3097 2075 3097 
Q 1594 3097 1305 2825 
Q 1016 2553 972 2059 
L 3022 2063 
z
" transform="scale(0.015625)"/>
        <path id="DejaVuSans-6c" d="M 603 4863 
L 1178 4863 
L 1178 0 
L 603 0 
L 603 4863 
z
" transform="scale(0.015625)"/>
        <path id="DejaVuSans-6a" d="M 603 3500 
L 1178 3500 
L 1178 -63 
Q 1178 -731 923 -1031 
Q 669 -1331 103 -1331 
L -116 -1331 
L -116 -844 
L 38 -844 
Q 366 -844 484 -692 
Q 603 -541 603 -63 
L 603 3500 
z
M 603 4863 
L 1178 4863 
L 1178 4134 
L 603 4134 
L 603 4863 
z
" transform="scale(0.015625)"/>
        <path id="DejaVuSans-2d" d="M 313 2009 
L 1997 2009 
L 1997 1497 
L 313 1497 
L 313 2009 
z
" transform="scale(0.015625)"/>
        <path id="DejaVuSans-47" d="M 3809 666 
L 3809 1919 
L 2778 1919 
L 2778 2438 
L 4434 2438 
L 4434 434 
Q 4069 175 3628 42 
Q 3188 -91 2688 -91 
Q 1594 -91 976 548 
Q 359 1188 359 2328 
Q 359 3472 976 4111 
Q 1594 4750 2688 4750 
Q 3144 4750 3555 4637 
Q 3966 4525 4313 4306 
L 4313 3634 
Q 3963 3931 3569 4081 
Q 3175 4231 2741 4231 
Q 1884 4231 1454 3753 
Q 1025 3275 1025 2328 
Q 1025 1384 1454 906 
Q 1884 428 2741 428 
Q 3075 428 3337 486 
Q 3600 544 3809 666 
z
" transform="scale(0.015625)"/>
        <path id="DejaVuSans-6f" d="M 1959 3097 
Q 1497 3097 1228 2736 
Q 959 2375 959 1747 
Q 959 1119 1226 758 
Q 1494 397 1959 397 
Q 2419 397 2687 759 
Q 2956 1122 2956 1747 
Q 2956 2369 2687 2733 
Q 2419 3097 1959 3097 
z
M 1959 3584 
Q 2709 3584 3137 3096 
Q 3566 2609 3566 1747 
Q 3566 888 3137 398 
Q 2709 -91 1959 -91 
Q 1206 -91 779 398 
Q 353 888 353 1747 
Q 353 2609 779 3096 
Q 1206 3584 1959 3584 
z
" transform="scale(0.015625)"/>
        <path id="DejaVuSans-72" d="M 2631 2963 
Q 2534 3019 2420 3045 
Q 2306 3072 2169 3072 
Q 1681 3072 1420 2755 
Q 1159 2438 1159 1844 
L 1159 0 
L 581 0 
L 581 3500 
L 1159 3500 
L 1159 2956 
Q 1341 3275 1631 3429 
Q 1922 3584 2338 3584 
Q 2397 3584 2469 3576 
Q 2541 3569 2628 3553 
L 2631 2963 
z
" transform="scale(0.015625)"/>
        <path id="DejaVuSans-73" d="M 2834 3397 
L 2834 2853 
Q 2591 2978 2328 3040 
Q 2066 3103 1784 3103 
Q 1356 3103 1142 2972 
Q 928 2841 928 2578 
Q 928 2378 1081 2264 
Q 1234 2150 1697 2047 
L 1894 2003 
Q 2506 1872 2764 1633 
Q 3022 1394 3022 966 
Q 3022 478 2636 193 
Q 2250 -91 1575 -91 
Q 1294 -91 989 -36 
Q 684 19 347 128 
L 347 722 
Q 666 556 975 473 
Q 1284 391 1588 391 
Q 1994 391 2212 530 
Q 2431 669 2431 922 
Q 2431 1156 2273 1281 
Q 2116 1406 1581 1522 
L 1381 1569 
Q 847 1681 609 1914 
Q 372 2147 372 2553 
Q 372 3047 722 3315 
Q 1072 3584 1716 3584 
Q 2034 3584 2315 3537 
Q 2597 3491 2834 3397 
z
" transform="scale(0.015625)"/>
        <path id="DejaVuSans-6b" d="M 581 4863 
L 1159 4863 
L 1159 1991 
L 2875 3500 
L 3609 3500 
L 1753 1863 
L 3688 0 
L 2938 0 
L 1159 1709 
L 1159 0 
L 581 0 
L 581 4863 
z
" transform="scale(0.015625)"/>
        <path id="DejaVuSans-69" d="M 603 3500 
L 1178 3500 
L 1178 0 
L 603 0 
L 603 3500 
z
M 603 4863 
L 1178 4863 
L 1178 4134 
L 603 4134 
L 603 4863 
z
" transform="scale(0.015625)"/>
        <path id="DejaVuSans-20" transform="scale(0.015625)"/>
        <path id="DejaVuSans-74" d="M 1172 4494 
L 1172 3500 
L 2356 3500 
L 2356 3053 
L 1172 3053 
L 1172 1153 
Q 1172 725 1289 603 
Q 1406 481 1766 481 
L 2356 481 
L 2356 0 
L 1766 0 
Q 1100 0 847 248 
Q 594 497 594 1153 
L 594 3053 
L 172 3053 
L 172 3500 
L 594 3500 
L 594 4494 
L 1172 4494 
z
" transform="scale(0.015625)"/>
        <path id="DejaVuSans-61" d="M 2194 1759 
Q 1497 1759 1228 1600 
Q 959 1441 959 1056 
Q 959 750 1161 570 
Q 1363 391 1709 391 
Q 2188 391 2477 730 
Q 2766 1069 2766 1631 
L 2766 1759 
L 2194 1759 
z
M 3341 1997 
L 3341 0 
L 2766 0 
L 2766 531 
Q 2569 213 2275 61 
Q 1981 -91 1556 -91 
Q 1019 -91 701 211 
Q 384 513 384 1019 
Q 384 1609 779 1909 
Q 1175 2209 1959 2209 
L 2766 2209 
L 2766 2266 
Q 2766 2663 2505 2880 
Q 2244 3097 1772 3097 
Q 1472 3097 1187 3025 
Q 903 2953 641 2809 
L 641 3341 
Q 956 3463 1253 3523 
Q 1550 3584 1831 3584 
Q 2591 3584 2966 3190 
Q 3341 2797 3341 1997 
z
" transform="scale(0.015625)"/>
        <path id="DejaVuSans-70" d="M 1159 525 
L 1159 -1331 
L 581 -1331 
L 581 3500 
L 1159 3500 
L 1159 2969 
Q 1341 3281 1617 3432 
Q 1894 3584 2278 3584 
Q 2916 3584 3314 3078 
Q 3713 2572 3713 1747 
Q 3713 922 3314 415 
Q 2916 -91 2278 -91 
Q 1894 -91 1617 61 
Q 1341 213 1159 525 
z
M 3116 1747 
Q 3116 2381 2855 2742 
Q 2594 3103 2138 3103 
Q 1681 3103 1420 2742 
Q 1159 2381 1159 1747 
Q 1159 1113 1420 752 
Q 1681 391 2138 391 
Q 2594 391 2855 752 
Q 3116 1113 3116 1747 
z
" transform="scale(0.015625)"/>
       </defs>
       <use xlink:href="#DejaVuSans-4b"/>
       <use xlink:href="#DejaVuSans-75" x="60.576172"/>
       <use xlink:href="#DejaVuSans-17e" x="123.955078"/>
       <use xlink:href="#DejaVuSans-65" x="176.445312"/>
       <use xlink:href="#DejaVuSans-6c" x="237.96875"/>
       <use xlink:href="#DejaVuSans-6a" x="265.751953"/>
       <use xlink:href="#DejaVuSans-2d" x="293.535156"/>
       <use xlink:href="#DejaVuSans-47" x="333.244141"/>
       <use xlink:href="#DejaVuSans-6f" x="410.734375"/>
       <use xlink:href="#DejaVuSans-72" x="471.916016"/>
       <use xlink:href="#DejaVuSans-73" x="513.029297"/>
       <use xlink:href="#DejaVuSans-6b" x="565.128906"/>
       <use xlink:href="#DejaVuSans-69" x="623.039062"/>
       <use xlink:href="#DejaVuSans-20" x="650.822266"/>
       <use xlink:href="#DejaVuSans-6b" x="682.609375"/>
       <use xlink:href="#DejaVuSans-6f" x="736.894531"/>
       <use xlink:href="#DejaVuSans-74" x="798.076172"/>
       <use xlink:href="#DejaVuSans-61" x="837.285156"/>
       <use xlink:href="#DejaVuSans-72" x="898.564453"/>
       <use xlink:href="#DejaVuSans-20" x="939.677734"/>
       <use xlink:href="#DejaVuSans-2d" x="971.464844"/>
       <use xlink:href="#DejaVuSans-20" x="1007.548828"/>
       <use xlink:href="#DejaVuSans-4b" x="1039.335938"/>
       <use xlink:href="#DejaVuSans-75" x="1099.912109"/>
       <use xlink:href="#DejaVuSans-70" x="1163.291016"/>
       <use xlink:href="#DejaVuSans-61" x="1226.767578"/>
      </g>
     </g>
    </g>
    <g id="xtick_2">
     <g id="line2d_2">
      <g>
       <use xlink:href="#m7a698e7347" x="173.102495" y="186.823437" style="stroke: #000000; stroke-width: 0.8"/>
      </g>
     </g>
     <g id="text_2">
      <!-- Severin na Kupi-kupalište Klanac - Kupa -->
      <g transform="translate(176.06187 392.148438) rotate(-90) scale(0.1 -0.1)">
       <defs>
        <path id="DejaVuSans-53" d="M 3425 4513 
L 3425 3897 
Q 3066 4069 2747 4153 
Q 2428 4238 2131 4238 
Q 1616 4238 1336 4038 
Q 1056 3838 1056 3469 
Q 1056 3159 1242 3001 
Q 1428 2844 1947 2747 
L 2328 2669 
Q 3034 2534 3370 2195 
Q 3706 1856 3706 1288 
Q 3706 609 3251 259 
Q 2797 -91 1919 -91 
Q 1588 -91 1214 -16 
Q 841 59 441 206 
L 441 856 
Q 825 641 1194 531 
Q 1563 422 1919 422 
Q 2459 422 2753 634 
Q 3047 847 3047 1241 
Q 3047 1584 2836 1778 
Q 2625 1972 2144 2069 
L 1759 2144 
Q 1053 2284 737 2584 
Q 422 2884 422 3419 
Q 422 4038 858 4394 
Q 1294 4750 2059 4750 
Q 2388 4750 2728 4690 
Q 3069 4631 3425 4513 
z
" transform="scale(0.015625)"/>
        <path id="DejaVuSans-76" d="M 191 3500 
L 800 3500 
L 1894 563 
L 2988 3500 
L 3597 3500 
L 2284 0 
L 1503 0 
L 191 3500 
z
" transform="scale(0.015625)"/>
        <path id="DejaVuSans-6e" d="M 3513 2113 
L 3513 0 
L 2938 0 
L 2938 2094 
Q 2938 2591 2744 2837 
Q 2550 3084 2163 3084 
Q 1697 3084 1428 2787 
Q 1159 2491 1159 1978 
L 1159 0 
L 581 0 
L 581 3500 
L 1159 3500 
L 1159 2956 
Q 1366 3272 1645 3428 
Q 1925 3584 2291 3584 
Q 2894 3584 3203 3211 
Q 3513 2838 3513 2113 
z
" transform="scale(0.015625)"/>
        <path id="DejaVuSans-161" d="M 2834 3397 
L 2834 2853 
Q 2591 2978 2328 3040 
Q 2066 3103 1784 3103 
Q 1356 3103 1142 2972 
Q 928 2841 928 2578 
Q 928 2378 1081 2264 
Q 1234 2150 1697 2047 
L 1894 2003 
Q 2506 1872 2764 1633 
Q 3022 1394 3022 966 
Q 3022 478 2636 193 
Q 2250 -91 1575 -91 
Q 1294 -91 989 -36 
Q 684 19 347 128 
L 347 722 
Q 666 556 975 473 
Q 1284 391 1588 391 
Q 1994 391 2212 530 
Q 2431 669 2431 922 
Q 2431 1156 2273 1281 
Q 2116 1406 1581 1522 
L 1381 1569 
Q 847 1681 609 1914 
Q 372 2147 372 2553 
Q 372 3047 722 3315 
Q 1072 3584 1716 3584 
Q 2034 3584 2315 3537 
Q 2597 3491 2834 3397 
z
M 1501 3944 
L 736 5119 
L 1170 5119 
L 1733 4353 
L 2295 5119 
L 2729 5119 
L 1964 3944 
L 1501 3944 
z
M 1720 3584 
L 1720 3584 
z
" transform="scale(0.015625)"/>
        <path id="DejaVuSans-63" d="M 3122 3366 
L 3122 2828 
Q 2878 2963 2633 3030 
Q 2388 3097 2138 3097 
Q 1578 3097 1268 2742 
Q 959 2388 959 1747 
Q 959 1106 1268 751 
Q 1578 397 2138 397 
Q 2388 397 2633 464 
Q 2878 531 3122 666 
L 3122 134 
Q 2881 22 2623 -34 
Q 2366 -91 2075 -91 
Q 1284 -91 818 406 
Q 353 903 353 1747 
Q 353 2603 823 3093 
Q 1294 3584 2113 3584 
Q 2378 3584 2631 3529 
Q 2884 3475 3122 3366 
z
" transform="scale(0.015625)"/>
       </defs>
       <use xlink:href="#DejaVuSans-53"/>
       <use xlink:href="#DejaVuSans-65" x="63.476562"/>
       <use xlink:href="#DejaVuSans-76" x="125"/>
       <use xlink:href="#DejaVuSans-65" x="184.179688"/>
       <use xlink:href="#DejaVuSans-72" x="245.703125"/>
       <use xlink:href="#DejaVuSans-69" x="286.816406"/>
       <use xlink:href="#DejaVuSans-6e" x="314.599609"/>
       <use xlink:href="#DejaVuSans-20" x="377.978516"/>
       <use xlink:href="#DejaVuSans-6e" x="409.765625"/>
       <use xlink:href="#DejaVuSans-61" x="473.144531"/>
       <use xlink:href="#DejaVuSans-20" x="534.423828"/>
       <use xlink:href="#DejaVuSans-4b" x="566.210938"/>
       <use xlink:href="#DejaVuSans-75" x="626.787109"/>
       <use xlink:href="#DejaVuSans-70" x="690.166016"/>
       <use xlink:href="#DejaVuSans-69" x="753.642578"/>
       <use xlink:href="#DejaVuSans-2d" x="781.425781"/>
       <use xlink:href="#DejaVuSans-6b" x="817.509766"/>
       <use xlink:href="#DejaVuSans-75" x="872.294922"/>
       <use xlink:href="#DejaVuSans-70" x="935.673828"/>
       <use xlink:href="#DejaVuSans-61" x="999.150391"/>
       <use xlink:href="#DejaVuSans-6c" x="1060.429688"/>
       <use xlink:href="#DejaVuSans-69" x="1088.212891"/>
       <use xlink:href="#DejaVuSans-161" x="1115.996094"/>
       <use xlink:href="#DejaVuSans-74" x="1168.095703"/>
       <use xlink:href="#DejaVuSans-65" x="1207.304688"/>
       <use xlink:href="#DejaVuSans-20" x="1268.828125"/>
       <use xlink:href="#DejaVuSans-4b" x="1300.615234"/>
       <use xlink:href="#DejaVuSans-6c" x="1366.191406"/>
       <use xlink:href="#DejaVuSans-61" x="1393.974609"/>
       <use xlink:href="#DejaVuSans-6e" x="1455.253906"/>
       <use xlink:href="#DejaVuSans-61" x="1518.632812"/>
       <use xlink:href="#DejaVuSans-63" x="1579.912109"/>
       <use xlink:href="#DejaVuSans-20" x="1634.892578"/>
       <use xlink:href="#DejaVuSans-2d" x="1666.679688"/>
       <use xlink:href="#DejaVuSans-20" x="1702.763672"/>
       <use xlink:href="#DejaVuSans-4b" x="1734.550781"/>
       <use xlink:href="#DejaVuSans-75" x="1795.126953"/>
       <use xlink:href="#DejaVuSans-70" x="1858.505859"/>
       <use xlink:href="#DejaVuSans-61" x="1921.982422"/>
      </g>
     </g>
    </g>
    <g id="xtick_3">
     <g id="line2d_3">
      <g>
       <use xlink:href="#m7a698e7347" x="257.511038" y="186.823437" style="stroke: #000000; stroke-width: 0.8"/>
      </g>
     </g>
     <g id="text_3">
      <!-- Jurovo - Jurovski Brod (utok Lahinje - lijevi pritok) - Kupa  -->
      <g transform="translate(260.270413 476.317187) rotate(-90) scale(0.1 -0.1)">
       <defs>
        <path id="DejaVuSans-4a" d="M 628 4666 
L 1259 4666 
L 1259 325 
Q 1259 -519 939 -900 
Q 619 -1281 -91 -1281 
L -331 -1281 
L -331 -750 
L -134 -750 
Q 284 -750 456 -515 
Q 628 -281 628 325 
L 628 4666 
z
" transform="scale(0.015625)"/>
        <path id="DejaVuSans-42" d="M 1259 2228 
L 1259 519 
L 2272 519 
Q 2781 519 3026 730 
Q 3272 941 3272 1375 
Q 3272 1813 3026 2020 
Q 2781 2228 2272 2228 
L 1259 2228 
z
M 1259 4147 
L 1259 2741 
L 2194 2741 
Q 2656 2741 2882 2914 
Q 3109 3088 3109 3444 
Q 3109 3797 2882 3972 
Q 2656 4147 2194 4147 
L 1259 4147 
z
M 628 4666 
L 2241 4666 
Q 2963 4666 3353 4366 
Q 3744 4066 3744 3513 
Q 3744 3084 3544 2831 
Q 3344 2578 2956 2516 
Q 3422 2416 3680 2098 
Q 3938 1781 3938 1306 
Q 3938 681 3513 340 
Q 3088 0 2303 0 
L 628 0 
L 628 4666 
z
" transform="scale(0.015625)"/>
        <path id="DejaVuSans-64" d="M 2906 2969 
L 2906 4863 
L 3481 4863 
L 3481 0 
L 2906 0 
L 2906 525 
Q 2725 213 2448 61 
Q 2172 -91 1784 -91 
Q 1150 -91 751 415 
Q 353 922 353 1747 
Q 353 2572 751 3078 
Q 1150 3584 1784 3584 
Q 2172 3584 2448 3432 
Q 2725 3281 2906 2969 
z
M 947 1747 
Q 947 1113 1208 752 
Q 1469 391 1925 391 
Q 2381 391 2643 752 
Q 2906 1113 2906 1747 
Q 2906 2381 2643 2742 
Q 2381 3103 1925 3103 
Q 1469 3103 1208 2742 
Q 947 2381 947 1747 
z
" transform="scale(0.015625)"/>
        <path id="DejaVuSans-28" d="M 1984 4856 
Q 1566 4138 1362 3434 
Q 1159 2731 1159 2009 
Q 1159 1288 1364 580 
Q 1569 -128 1984 -844 
L 1484 -844 
Q 1016 -109 783 600 
Q 550 1309 550 2009 
Q 550 2706 781 3412 
Q 1013 4119 1484 4856 
L 1984 4856 
z
" transform="scale(0.015625)"/>
        <path id="DejaVuSans-4c" d="M 628 4666 
L 1259 4666 
L 1259 531 
L 3531 531 
L 3531 0 
L 628 0 
L 628 4666 
z
" transform="scale(0.015625)"/>
        <path id="DejaVuSans-68" d="M 3513 2113 
L 3513 0 
L 2938 0 
L 2938 2094 
Q 2938 2591 2744 2837 
Q 2550 3084 2163 3084 
Q 1697 3084 1428 2787 
Q 1159 2491 1159 1978 
L 1159 0 
L 581 0 
L 581 4863 
L 1159 4863 
L 1159 2956 
Q 1366 3272 1645 3428 
Q 1925 3584 2291 3584 
Q 2894 3584 3203 3211 
Q 3513 2838 3513 2113 
z
" transform="scale(0.015625)"/>
        <path id="DejaVuSans-29" d="M 513 4856 
L 1013 4856 
Q 1481 4119 1714 3412 
Q 1947 2706 1947 2009 
Q 1947 1309 1714 600 
Q 1481 -109 1013 -844 
L 513 -844 
Q 928 -128 1133 580 
Q 1338 1288 1338 2009 
Q 1338 2731 1133 3434 
Q 928 4138 513 4856 
z
" transform="scale(0.015625)"/>
       </defs>
       <use xlink:href="#DejaVuSans-4a"/>
       <use xlink:href="#DejaVuSans-75" x="29.492188"/>
       <use xlink:href="#DejaVuSans-72" x="92.871094"/>
       <use xlink:href="#DejaVuSans-6f" x="131.734375"/>
       <use xlink:href="#DejaVuSans-76" x="192.916016"/>
       <use xlink:href="#DejaVuSans-6f" x="252.095703"/>
       <use xlink:href="#DejaVuSans-20" x="313.277344"/>
       <use xlink:href="#DejaVuSans-2d" x="345.064453"/>
       <use xlink:href="#DejaVuSans-20" x="381.148438"/>
       <use xlink:href="#DejaVuSans-4a" x="412.935547"/>
       <use xlink:href="#DejaVuSans-75" x="442.427734"/>
       <use xlink:href="#DejaVuSans-72" x="505.806641"/>
       <use xlink:href="#DejaVuSans-6f" x="544.669922"/>
       <use xlink:href="#DejaVuSans-76" x="605.851562"/>
       <use xlink:href="#DejaVuSans-73" x="665.03125"/>
       <use xlink:href="#DejaVuSans-6b" x="717.130859"/>
       <use xlink:href="#DejaVuSans-69" x="775.041016"/>
       <use xlink:href="#DejaVuSans-20" x="802.824219"/>
       <use xlink:href="#DejaVuSans-42" x="834.611328"/>
       <use xlink:href="#DejaVuSans-72" x="903.214844"/>
       <use xlink:href="#DejaVuSans-6f" x="942.078125"/>
       <use xlink:href="#DejaVuSans-64" x="1003.259766"/>
       <use xlink:href="#DejaVuSans-20" x="1066.736328"/>
       <use xlink:href="#DejaVuSans-28" x="1098.523438"/>
       <use xlink:href="#DejaVuSans-75" x="1137.537109"/>
       <use xlink:href="#DejaVuSans-74" x="1200.916016"/>
       <use xlink:href="#DejaVuSans-6f" x="1240.125"/>
       <use xlink:href="#DejaVuSans-6b" x="1301.306641"/>
       <use xlink:href="#DejaVuSans-20" x="1359.216797"/>
       <use xlink:href="#DejaVuSans-4c" x="1391.003906"/>
       <use xlink:href="#DejaVuSans-61" x="1446.716797"/>
       <use xlink:href="#DejaVuSans-68" x="1507.996094"/>
       <use xlink:href="#DejaVuSans-69" x="1571.375"/>
       <use xlink:href="#DejaVuSans-6e" x="1599.158203"/>
       <use xlink:href="#DejaVuSans-6a" x="1662.537109"/>
       <use xlink:href="#DejaVuSans-65" x="1690.320312"/>
       <use xlink:href="#DejaVuSans-20" x="1751.84375"/>
       <use xlink:href="#DejaVuSans-2d" x="1783.630859"/>
       <use xlink:href="#DejaVuSans-20" x="1819.714844"/>
       <use xlink:href="#DejaVuSans-6c" x="1851.501953"/>
       <use xlink:href="#DejaVuSans-69" x="1879.285156"/>
       <use xlink:href="#DejaVuSans-6a" x="1907.068359"/>
       <use xlink:href="#DejaVuSans-65" x="1934.851562"/>
       <use xlink:href="#DejaVuSans-76" x="1996.375"/>
       <use xlink:href="#DejaVuSans-69" x="2055.554688"/>
       <use xlink:href="#DejaVuSans-20" x="2083.337891"/>
       <use xlink:href="#DejaVuSans-70" x="2115.125"/>
       <use xlink:href="#DejaVuSans-72" x="2178.601562"/>
       <use xlink:href="#DejaVuSans-69" x="2219.714844"/>
       <use xlink:href="#DejaVuSans-74" x="2247.498047"/>
       <use xlink:href="#DejaVuSans-6f" x="2286.707031"/>
       <use xlink:href="#DejaVuSans-6b" x="2347.888672"/>
       <use xlink:href="#DejaVuSans-29" x="2405.798828"/>
       <use xlink:href="#DejaVuSans-20" x="2444.8125"/>
       <use xlink:href="#DejaVuSans-2d" x="2476.599609"/>
       <use xlink:href="#DejaVuSans-20" x="2512.683594"/>
       <use xlink:href="#DejaVuSans-4b" x="2544.470703"/>
       <use xlink:href="#DejaVuSans-75" x="2605.046875"/>
       <use xlink:href="#DejaVuSans-70" x="2668.425781"/>
       <use xlink:href="#DejaVuSans-61" x="2731.902344"/>
       <use xlink:href="#DejaVuSans-20" x="2793.181641"/>
      </g>
     </g>
    </g>
    <g id="xtick_4">
     <g id="line2d_4">
      <g>
       <use xlink:href="#m7a698e7347" x="341.919582" y="186.823437" style="stroke: #000000; stroke-width: 0.8"/>
      </g>
     </g>
     <g id="text_4">
      <!-- Ozalj - Kupa  -->
      <g transform="translate(344.678957 256.642187) rotate(-90) scale(0.1 -0.1)">
       <defs>
        <path id="DejaVuSans-4f" d="M 2522 4238 
Q 1834 4238 1429 3725 
Q 1025 3213 1025 2328 
Q 1025 1447 1429 934 
Q 1834 422 2522 422 
Q 3209 422 3611 934 
Q 4013 1447 4013 2328 
Q 4013 3213 3611 3725 
Q 3209 4238 2522 4238 
z
M 2522 4750 
Q 3503 4750 4090 4092 
Q 4678 3434 4678 2328 
Q 4678 1225 4090 567 
Q 3503 -91 2522 -91 
Q 1538 -91 948 565 
Q 359 1222 359 2328 
Q 359 3434 948 4092 
Q 1538 4750 2522 4750 
z
" transform="scale(0.015625)"/>
        <path id="DejaVuSans-7a" d="M 353 3500 
L 3084 3500 
L 3084 2975 
L 922 459 
L 3084 459 
L 3084 0 
L 275 0 
L 275 525 
L 2438 3041 
L 353 3041 
L 353 3500 
z
" transform="scale(0.015625)"/>
       </defs>
       <use xlink:href="#DejaVuSans-4f"/>
       <use xlink:href="#DejaVuSans-7a" x="78.710938"/>
       <use xlink:href="#DejaVuSans-61" x="131.201172"/>
       <use xlink:href="#DejaVuSans-6c" x="192.480469"/>
       <use xlink:href="#DejaVuSans-6a" x="220.263672"/>
       <use xlink:href="#DejaVuSans-20" x="248.046875"/>
       <use xlink:href="#DejaVuSans-2d" x="279.833984"/>
       <use xlink:href="#DejaVuSans-20" x="315.917969"/>
       <use xlink:href="#DejaVuSans-4b" x="347.705078"/>
       <use xlink:href="#DejaVuSans-75" x="408.28125"/>
       <use xlink:href="#DejaVuSans-70" x="471.660156"/>
       <use xlink:href="#DejaVuSans-61" x="535.136719"/>
       <use xlink:href="#DejaVuSans-20" x="596.416016"/>
      </g>
     </g>
    </g>
    <g id="xtick_5">
     <g id="line2d_5">
      <g>
       <use xlink:href="#m7a698e7347" x="426.328125" y="186.823437" style="stroke: #000000; stroke-width: 0.8"/>
      </g>
     </g>
     <g id="text_5">
      <!-- Ozalj-gradsko kupalište - Kupa -->
      <g transform="translate(429.2875 345.073437) rotate(-90) scale(0.1 -0.1)">
       <defs>
        <path id="DejaVuSans-67" d="M 2906 1791 
Q 2906 2416 2648 2759 
Q 2391 3103 1925 3103 
Q 1463 3103 1205 2759 
Q 947 2416 947 1791 
Q 947 1169 1205 825 
Q 1463 481 1925 481 
Q 2391 481 2648 825 
Q 2906 1169 2906 1791 
z
M 3481 434 
Q 3481 -459 3084 -895 
Q 2688 -1331 1869 -1331 
Q 1566 -1331 1297 -1286 
Q 1028 -1241 775 -1147 
L 775 -588 
Q 1028 -725 1275 -790 
Q 1522 -856 1778 -856 
Q 2344 -856 2625 -561 
Q 2906 -266 2906 331 
L 2906 616 
Q 2728 306 2450 153 
Q 2172 0 1784 0 
Q 1141 0 747 490 
Q 353 981 353 1791 
Q 353 2603 747 3093 
Q 1141 3584 1784 3584 
Q 2172 3584 2450 3431 
Q 2728 3278 2906 2969 
L 2906 3500 
L 3481 3500 
L 3481 434 
z
" transform="scale(0.015625)"/>
       </defs>
       <use xlink:href="#DejaVuSans-4f"/>
       <use xlink:href="#DejaVuSans-7a" x="78.710938"/>
       <use xlink:href="#DejaVuSans-61" x="131.201172"/>
       <use xlink:href="#DejaVuSans-6c" x="192.480469"/>
       <use xlink:href="#DejaVuSans-6a" x="220.263672"/>
       <use xlink:href="#DejaVuSans-2d" x="248.046875"/>
       <use xlink:href="#DejaVuSans-67" x="284.130859"/>
       <use xlink:href="#DejaVuSans-72" x="347.607422"/>
       <use xlink:href="#DejaVuSans-61" x="388.720703"/>
       <use xlink:href="#DejaVuSans-64" x="450"/>
       <use xlink:href="#DejaVuSans-73" x="513.476562"/>
       <use xlink:href="#DejaVuSans-6b" x="565.576172"/>
       <use xlink:href="#DejaVuSans-6f" x="619.861328"/>
       <use xlink:href="#DejaVuSans-20" x="681.042969"/>
       <use xlink:href="#DejaVuSans-6b" x="712.830078"/>
       <use xlink:href="#DejaVuSans-75" x="767.615234"/>
       <use xlink:href="#DejaVuSans-70" x="830.994141"/>
       <use xlink:href="#DejaVuSans-61" x="894.470703"/>
       <use xlink:href="#DejaVuSans-6c" x="955.75"/>
       <use xlink:href="#DejaVuSans-69" x="983.533203"/>
       <use xlink:href="#DejaVuSans-161" x="1011.316406"/>
       <use xlink:href="#DejaVuSans-74" x="1063.416016"/>
       <use xlink:href="#DejaVuSans-65" x="1102.625"/>
       <use xlink:href="#DejaVuSans-20" x="1164.148438"/>
       <use xlink:href="#DejaVuSans-2d" x="1195.935547"/>
       <use xlink:href="#DejaVuSans-20" x="1232.019531"/>
       <use xlink:href="#DejaVuSans-4b" x="1263.806641"/>
       <use xlink:href="#DejaVuSans-75" x="1324.382812"/>
       <use xlink:href="#DejaVuSans-70" x="1387.761719"/>
       <use xlink:href="#DejaVuSans-61" x="1451.238281"/>
      </g>
     </g>
    </g>
    <g id="xtick_6">
     <g id="line2d_6">
      <g>
       <use xlink:href="#m7a698e7347" x="510.736668" y="186.823437" style="stroke: #000000; stroke-width: 0.8"/>
      </g>
     </g>
     <g id="text_6">
      <!-- centar Karlovca - Kupa -->
      <g transform="translate(513.496043 307.05) rotate(-90) scale(0.1 -0.1)">
       <use xlink:href="#DejaVuSans-63"/>
       <use xlink:href="#DejaVuSans-65" x="54.980469"/>
       <use xlink:href="#DejaVuSans-6e" x="116.503906"/>
       <use xlink:href="#DejaVuSans-74" x="179.882812"/>
       <use xlink:href="#DejaVuSans-61" x="219.091797"/>
       <use xlink:href="#DejaVuSans-72" x="280.371094"/>
       <use xlink:href="#DejaVuSans-20" x="321.484375"/>
       <use xlink:href="#DejaVuSans-4b" x="353.271484"/>
       <use xlink:href="#DejaVuSans-61" x="417.097656"/>
       <use xlink:href="#DejaVuSans-72" x="478.376953"/>
       <use xlink:href="#DejaVuSans-6c" x="519.490234"/>
       <use xlink:href="#DejaVuSans-6f" x="547.273438"/>
       <use xlink:href="#DejaVuSans-76" x="608.455078"/>
       <use xlink:href="#DejaVuSans-63" x="667.634766"/>
       <use xlink:href="#DejaVuSans-61" x="722.615234"/>
       <use xlink:href="#DejaVuSans-20" x="783.894531"/>
       <use xlink:href="#DejaVuSans-2d" x="815.681641"/>
       <use xlink:href="#DejaVuSans-20" x="851.765625"/>
       <use xlink:href="#DejaVuSans-4b" x="883.552734"/>
       <use xlink:href="#DejaVuSans-75" x="944.128906"/>
       <use xlink:href="#DejaVuSans-70" x="1007.507812"/>
       <use xlink:href="#DejaVuSans-61" x="1070.984375"/>
      </g>
     </g>
    </g>
    <g id="xtick_7">
     <g id="line2d_7">
      <g>
       <use xlink:href="#m7a698e7347" x="595.145212" y="186.823437" style="stroke: #000000; stroke-width: 0.8"/>
      </g>
     </g>
     <g id="text_7">
      <!-- ušće u Kupu - Korana -->
      <g transform="translate(598.104587 299.642187) rotate(-90) scale(0.1 -0.1)">
       <defs>
        <path id="DejaVuSans-107" d="M 3122 3366 
L 3122 2828 
Q 2878 2963 2633 3030 
Q 2388 3097 2138 3097 
Q 1578 3097 1268 2742 
Q 959 2388 959 1747 
Q 959 1106 1268 751 
Q 1578 397 2138 397 
Q 2388 397 2633 464 
Q 2878 531 3122 666 
L 3122 134 
Q 2881 22 2623 -34 
Q 2366 -91 2075 -91 
Q 1284 -91 818 406 
Q 353 903 353 1747 
Q 353 2603 823 3093 
Q 1294 3584 2113 3584 
Q 2378 3584 2631 3529 
Q 2884 3475 3122 3366 
z
M 2466 5119 
L 3088 5119 
L 2070 3944 
L 1591 3944 
L 2466 5119 
z
" transform="scale(0.015625)"/>
       </defs>
       <use xlink:href="#DejaVuSans-75"/>
       <use xlink:href="#DejaVuSans-161" x="63.378906"/>
       <use xlink:href="#DejaVuSans-107" x="115.478516"/>
       <use xlink:href="#DejaVuSans-65" x="170.458984"/>
       <use xlink:href="#DejaVuSans-20" x="231.982422"/>
       <use xlink:href="#DejaVuSans-75" x="263.769531"/>
       <use xlink:href="#DejaVuSans-20" x="327.148438"/>
       <use xlink:href="#DejaVuSans-4b" x="358.935547"/>
       <use xlink:href="#DejaVuSans-75" x="419.511719"/>
       <use xlink:href="#DejaVuSans-70" x="482.890625"/>
       <use xlink:href="#DejaVuSans-75" x="546.367188"/>
       <use xlink:href="#DejaVuSans-20" x="609.746094"/>
       <use xlink:href="#DejaVuSans-2d" x="641.533203"/>
       <use xlink:href="#DejaVuSans-20" x="677.617188"/>
       <use xlink:href="#DejaVuSans-4b" x="709.404297"/>
       <use xlink:href="#DejaVuSans-6f" x="769.980469"/>
       <use xlink:href="#DejaVuSans-72" x="831.162109"/>
       <use xlink:href="#DejaVuSans-61" x="872.275391"/>
       <use xlink:href="#DejaVuSans-6e" x="933.554688"/>
       <use xlink:href="#DejaVuSans-61" x="996.933594"/>
      </g>
     </g>
    </g>
    <g id="xtick_8">
     <g id="line2d_8">
      <g>
       <use xlink:href="#m7a698e7347" x="679.553755" y="186.823437" style="stroke: #000000; stroke-width: 0.8"/>
      </g>
     </g>
     <g id="text_8">
      <!-- Petrinja (kupalište) - Kupa -->
      <g transform="translate(682.51313 322.645312) rotate(-90) scale(0.1 -0.1)">
       <defs>
        <path id="DejaVuSans-50" d="M 1259 4147 
L 1259 2394 
L 2053 2394 
Q 2494 2394 2734 2622 
Q 2975 2850 2975 3272 
Q 2975 3691 2734 3919 
Q 2494 4147 2053 4147 
L 1259 4147 
z
M 628 4666 
L 2053 4666 
Q 2838 4666 3239 4311 
Q 3641 3956 3641 3272 
Q 3641 2581 3239 2228 
Q 2838 1875 2053 1875 
L 1259 1875 
L 1259 0 
L 628 0 
L 628 4666 
z
" transform="scale(0.015625)"/>
       </defs>
       <use xlink:href="#DejaVuSans-50"/>
       <use xlink:href="#DejaVuSans-65" x="56.677734"/>
       <use xlink:href="#DejaVuSans-74" x="118.201172"/>
       <use xlink:href="#DejaVuSans-72" x="157.410156"/>
       <use xlink:href="#DejaVuSans-69" x="198.523438"/>
       <use xlink:href="#DejaVuSans-6e" x="226.306641"/>
       <use xlink:href="#DejaVuSans-6a" x="289.685547"/>
       <use xlink:href="#DejaVuSans-61" x="317.46875"/>
       <use xlink:href="#DejaVuSans-20" x="378.748047"/>
       <use xlink:href="#DejaVuSans-28" x="410.535156"/>
       <use xlink:href="#DejaVuSans-6b" x="449.548828"/>
       <use xlink:href="#DejaVuSans-75" x="504.333984"/>
       <use xlink:href="#DejaVuSans-70" x="567.712891"/>
       <use xlink:href="#DejaVuSans-61" x="631.189453"/>
       <use xlink:href="#DejaVuSans-6c" x="692.46875"/>
       <use xlink:href="#DejaVuSans-69" x="720.251953"/>
       <use xlink:href="#DejaVuSans-161" x="748.035156"/>
       <use xlink:href="#DejaVuSans-74" x="800.134766"/>
       <use xlink:href="#DejaVuSans-65" x="839.34375"/>
       <use xlink:href="#DejaVuSans-29" x="900.867188"/>
       <use xlink:href="#DejaVuSans-20" x="939.880859"/>
       <use xlink:href="#DejaVuSans-2d" x="971.667969"/>
       <use xlink:href="#DejaVuSans-20" x="1007.751953"/>
       <use xlink:href="#DejaVuSans-4b" x="1039.539062"/>
       <use xlink:href="#DejaVuSans-75" x="1100.115234"/>
       <use xlink:href="#DejaVuSans-70" x="1163.494141"/>
       <use xlink:href="#DejaVuSans-61" x="1226.970703"/>
      </g>
     </g>
    </g>
    <g id="xtick_9">
     <g id="line2d_9">
      <g>
       <use xlink:href="#m7a698e7347" x="763.962298" y="186.823437" style="stroke: #000000; stroke-width: 0.8"/>
      </g>
     </g>
     <g id="text_9">
      <!-- Sisak (Stari grad) - Kupa -->
      <g transform="translate(766.721673 315.295312) rotate(-90) scale(0.1 -0.1)">
       <use xlink:href="#DejaVuSans-53"/>
       <use xlink:href="#DejaVuSans-69" x="63.476562"/>
       <use xlink:href="#DejaVuSans-73" x="91.259766"/>
       <use xlink:href="#DejaVuSans-61" x="143.359375"/>
       <use xlink:href="#DejaVuSans-6b" x="204.638672"/>
       <use xlink:href="#DejaVuSans-20" x="262.548828"/>
       <use xlink:href="#DejaVuSans-28" x="294.335938"/>
       <use xlink:href="#DejaVuSans-53" x="333.349609"/>
       <use xlink:href="#DejaVuSans-74" x="396.826172"/>
       <use xlink:href="#DejaVuSans-61" x="436.035156"/>
       <use xlink:href="#DejaVuSans-72" x="497.314453"/>
       <use xlink:href="#DejaVuSans-69" x="538.427734"/>
       <use xlink:href="#DejaVuSans-20" x="566.210938"/>
       <use xlink:href="#DejaVuSans-67" x="597.998047"/>
       <use xlink:href="#DejaVuSans-72" x="661.474609"/>
       <use xlink:href="#DejaVuSans-61" x="702.587891"/>
       <use xlink:href="#DejaVuSans-64" x="763.867188"/>
       <use xlink:href="#DejaVuSans-29" x="827.34375"/>
       <use xlink:href="#DejaVuSans-20" x="866.357422"/>
       <use xlink:href="#DejaVuSans-2d" x="898.144531"/>
       <use xlink:href="#DejaVuSans-20" x="934.228516"/>
       <use xlink:href="#DejaVuSans-4b" x="966.015625"/>
       <use xlink:href="#DejaVuSans-75" x="1026.591797"/>
       <use xlink:href="#DejaVuSans-70" x="1089.970703"/>
       <use xlink:href="#DejaVuSans-61" x="1153.447266"/>
      </g>
     </g>
    </g>
    <g id="text_10">
     <!-- Lokacije -->
     <g transform="translate(406.094531 487.915625) scale(0.1 -0.1)">
      <use xlink:href="#DejaVuSans-4c"/>
      <use xlink:href="#DejaVuSans-6f" x="53.962891"/>
      <use xlink:href="#DejaVuSans-6b" x="115.144531"/>
      <use xlink:href="#DejaVuSans-61" x="171.304688"/>
      <use xlink:href="#DejaVuSans-63" x="232.583984"/>
      <use xlink:href="#DejaVuSans-69" x="287.564453"/>
      <use xlink:href="#DejaVuSans-6a" x="315.347656"/>
      <use xlink:href="#DejaVuSans-65" x="343.130859"/>
     </g>
    </g>
   </g>
   <g id="matplotlib.axis_2">
    <g id="ytick_1">
     <g id="line2d_10">
      <defs>
       <path id="mc64780762e" d="M 0 0 
L -3.5 0 
" style="stroke: #000000; stroke-width: 0.8"/>
      </defs>
      <g>
       <use xlink:href="#mc64780762e" x="41.003125" y="186.823437" style="stroke: #000000; stroke-width: 0.8"/>
      </g>
     </g>
     <g id="text_11">
      <!-- 0 -->
      <g transform="translate(27.640625 190.622656) scale(0.1 -0.1)">
       <defs>
        <path id="DejaVuSans-30" d="M 2034 4250 
Q 1547 4250 1301 3770 
Q 1056 3291 1056 2328 
Q 1056 1369 1301 889 
Q 1547 409 2034 409 
Q 2525 409 2770 889 
Q 3016 1369 3016 2328 
Q 3016 3291 2770 3770 
Q 2525 4250 2034 4250 
z
M 2034 4750 
Q 2819 4750 3233 4129 
Q 3647 3509 3647 2328 
Q 3647 1150 3233 529 
Q 2819 -91 2034 -91 
Q 1250 -91 836 529 
Q 422 1150 422 2328 
Q 422 3509 836 4129 
Q 1250 4750 2034 4750 
z
" transform="scale(0.015625)"/>
       </defs>
       <use xlink:href="#DejaVuSans-30"/>
      </g>
     </g>
    </g>
    <g id="ytick_2">
     <g id="line2d_11">
      <g>
       <use xlink:href="#mc64780762e" x="41.003125" y="144.751545" style="stroke: #000000; stroke-width: 0.8"/>
      </g>
     </g>
     <g id="text_12">
      <!-- 5 -->
      <g transform="translate(27.640625 148.550763) scale(0.1 -0.1)">
       <defs>
        <path id="DejaVuSans-35" d="M 691 4666 
L 3169 4666 
L 3169 4134 
L 1269 4134 
L 1269 2991 
Q 1406 3038 1543 3061 
Q 1681 3084 1819 3084 
Q 2600 3084 3056 2656 
Q 3513 2228 3513 1497 
Q 3513 744 3044 326 
Q 2575 -91 1722 -91 
Q 1428 -91 1123 -41 
Q 819 9 494 109 
L 494 744 
Q 775 591 1075 516 
Q 1375 441 1709 441 
Q 2250 441 2565 725 
Q 2881 1009 2881 1497 
Q 2881 1984 2565 2268 
Q 2250 2553 1709 2553 
Q 1456 2553 1204 2497 
Q 953 2441 691 2322 
L 691 4666 
z
" transform="scale(0.015625)"/>
       </defs>
       <use xlink:href="#DejaVuSans-35"/>
      </g>
     </g>
    </g>
    <g id="ytick_3">
     <g id="line2d_12">
      <g>
       <use xlink:href="#mc64780762e" x="41.003125" y="102.679652" style="stroke: #000000; stroke-width: 0.8"/>
      </g>
     </g>
     <g id="text_13">
      <!-- 10 -->
      <g transform="translate(21.278125 106.47887) scale(0.1 -0.1)">
       <defs>
        <path id="DejaVuSans-31" d="M 794 531 
L 1825 531 
L 1825 4091 
L 703 3866 
L 703 4441 
L 1819 4666 
L 2450 4666 
L 2450 531 
L 3481 531 
L 3481 0 
L 794 0 
L 794 531 
z
" transform="scale(0.015625)"/>
       </defs>
       <use xlink:href="#DejaVuSans-31"/>
       <use xlink:href="#DejaVuSans-30" x="63.623047"/>
      </g>
     </g>
    </g>
    <g id="ytick_4">
     <g id="line2d_13">
      <g>
       <use xlink:href="#mc64780762e" x="41.003125" y="60.607759" style="stroke: #000000; stroke-width: 0.8"/>
      </g>
     </g>
     <g id="text_14">
      <!-- 15 -->
      <g transform="translate(21.278125 64.406977) scale(0.1 -0.1)">
       <use xlink:href="#DejaVuSans-31"/>
       <use xlink:href="#DejaVuSans-35" x="63.623047"/>
      </g>
     </g>
    </g>
    <g id="ytick_5">
     <g id="line2d_14">
      <g>
       <use xlink:href="#mc64780762e" x="41.003125" y="18.535866" style="stroke: #000000; stroke-width: 0.8"/>
      </g>
     </g>
     <g id="text_15">
      <!-- 20 -->
      <g transform="translate(21.278125 22.335084) scale(0.1 -0.1)">
       <defs>
        <path id="DejaVuSans-32" d="M 1228 531 
L 3431 531 
L 3431 0 
L 469 0 
L 469 531 
Q 828 903 1448 1529 
Q 2069 2156 2228 2338 
Q 2531 2678 2651 2914 
Q 2772 3150 2772 3378 
Q 2772 3750 2511 3984 
Q 2250 4219 1831 4219 
Q 1534 4219 1204 4116 
Q 875 4013 500 3803 
L 500 4441 
Q 881 4594 1212 4672 
Q 1544 4750 1819 4750 
Q 2544 4750 2975 4387 
Q 3406 4025 3406 3419 
Q 3406 3131 3298 2873 
Q 3191 2616 2906 2266 
Q 2828 2175 2409 1742 
Q 1991 1309 1228 531 
z
" transform="scale(0.015625)"/>
       </defs>
       <use xlink:href="#DejaVuSans-32"/>
       <use xlink:href="#DejaVuSans-30" x="63.623047"/>
      </g>
     </g>
    </g>
    <g id="text_16">
     <!-- Prosječna koncentracija -->
     <g style="fill: #1f77b4" transform="translate(15.198437 161.489844) rotate(-90) scale(0.1 -0.1)">
      <defs>
       <path id="DejaVuSans-10d" d="M 3122 3366 
L 3122 2828 
Q 2878 2963 2633 3030 
Q 2388 3097 2138 3097 
Q 1578 3097 1268 2742 
Q 959 2388 959 1747 
Q 959 1106 1268 751 
Q 1578 397 2138 397 
Q 2388 397 2633 464 
Q 2878 531 3122 666 
L 3122 134 
Q 2881 22 2623 -34 
Q 2366 -91 2075 -91 
Q 1284 -91 818 406 
Q 353 903 353 1747 
Q 353 2603 823 3093 
Q 1294 3584 2113 3584 
Q 2378 3584 2631 3529 
Q 2884 3475 3122 3366 
z
M 1801 3944 
L 1035 5119 
L 1470 5119 
L 2032 4353 
L 2595 5119 
L 3029 5119 
L 2263 3944 
L 1801 3944 
z
" transform="scale(0.015625)"/>
      </defs>
      <use xlink:href="#DejaVuSans-50"/>
      <use xlink:href="#DejaVuSans-72" x="58.552734"/>
      <use xlink:href="#DejaVuSans-6f" x="97.416016"/>
      <use xlink:href="#DejaVuSans-73" x="158.597656"/>
      <use xlink:href="#DejaVuSans-6a" x="210.697266"/>
      <use xlink:href="#DejaVuSans-65" x="238.480469"/>
      <use xlink:href="#DejaVuSans-10d" x="300.003906"/>
      <use xlink:href="#DejaVuSans-6e" x="354.984375"/>
      <use xlink:href="#DejaVuSans-61" x="418.363281"/>
      <use xlink:href="#DejaVuSans-20" x="479.642578"/>
      <use xlink:href="#DejaVuSans-6b" x="511.429688"/>
      <use xlink:href="#DejaVuSans-6f" x="565.714844"/>
      <use xlink:href="#DejaVuSans-6e" x="626.896484"/>
      <use xlink:href="#DejaVuSans-63" x="690.275391"/>
      <use xlink:href="#DejaVuSans-65" x="745.255859"/>
      <use xlink:href="#DejaVuSans-6e" x="806.779297"/>
      <use xlink:href="#DejaVuSans-74" x="870.158203"/>
      <use xlink:href="#DejaVuSans-72" x="909.367188"/>
      <use xlink:href="#DejaVuSans-61" x="950.480469"/>
      <use xlink:href="#DejaVuSans-63" x="1011.759766"/>
      <use xlink:href="#DejaVuSans-69" x="1066.740234"/>
      <use xlink:href="#DejaVuSans-6a" x="1094.523438"/>
      <use xlink:href="#DejaVuSans-61" x="1122.306641"/>
     </g>
    </g>
   </g>
   <g id="patch_30">
    <path d="M 41.003125 186.823437 
L 41.003125 17.798437 
" style="fill: none; stroke: #000000; stroke-width: 0.8; stroke-linejoin: miter; stroke-linecap: square"/>
   </g>
   <g id="patch_31">
    <path d="M 811.653125 186.823437 
L 811.653125 17.798437 
" style="fill: none; stroke: #000000; stroke-width: 0.8; stroke-linejoin: miter; stroke-linecap: square"/>
   </g>
   <g id="patch_32">
    <path d="M 41.003125 186.823437 
L 811.653125 186.823437 
" style="fill: none; stroke: #000000; stroke-width: 0.8; stroke-linejoin: miter; stroke-linecap: square"/>
   </g>
   <g id="patch_33">
    <path d="M 41.003125 17.798437 
L 811.653125 17.798437 
" style="fill: none; stroke: #000000; stroke-width: 0.8; stroke-linejoin: miter; stroke-linecap: square"/>
   </g>
   <g id="legend_1">
    <g id="patch_34">
     <path d="M 48.003125 113.867187 
L 171.28125 113.867187 
Q 173.28125 113.867187 173.28125 111.867187 
L 173.28125 24.798437 
Q 173.28125 22.798437 171.28125 22.798437 
L 48.003125 22.798437 
Q 46.003125 22.798437 46.003125 24.798437 
L 46.003125 111.867187 
Q 46.003125 113.867187 48.003125 113.867187 
z
" style="fill: #ffffff; opacity: 0.8; stroke: #cccccc; stroke-linejoin: miter"/>
    </g>
    <g id="patch_35">
     <path d="M 50.003125 34.396875 
L 70.003125 34.396875 
L 70.003125 27.396875 
L 50.003125 27.396875 
z
" style="fill: #87ceeb"/>
    </g>
    <g id="text_17">
     <!-- PAH koncentracija -->
     <g transform="translate(78.003125 34.396875) scale(0.1 -0.1)">
      <defs>
       <path id="DejaVuSans-41" d="M 2188 4044 
L 1331 1722 
L 3047 1722 
L 2188 4044 
z
M 1831 4666 
L 2547 4666 
L 4325 0 
L 3669 0 
L 3244 1197 
L 1141 1197 
L 716 0 
L 50 0 
L 1831 4666 
z
" transform="scale(0.015625)"/>
       <path id="DejaVuSans-48" d="M 628 4666 
L 1259 4666 
L 1259 2753 
L 3553 2753 
L 3553 4666 
L 4184 4666 
L 4184 0 
L 3553 0 
L 3553 2222 
L 1259 2222 
L 1259 0 
L 628 0 
L 628 4666 
z
" transform="scale(0.015625)"/>
      </defs>
      <use xlink:href="#DejaVuSans-50"/>
      <use xlink:href="#DejaVuSans-41" x="53.927734"/>
      <use xlink:href="#DejaVuSans-48" x="122.335938"/>
      <use xlink:href="#DejaVuSans-20" x="197.53125"/>
      <use xlink:href="#DejaVuSans-6b" x="229.318359"/>
      <use xlink:href="#DejaVuSans-6f" x="283.603516"/>
      <use xlink:href="#DejaVuSans-6e" x="344.785156"/>
      <use xlink:href="#DejaVuSans-63" x="408.164062"/>
      <use xlink:href="#DejaVuSans-65" x="463.144531"/>
      <use xlink:href="#DejaVuSans-6e" x="524.667969"/>
      <use xlink:href="#DejaVuSans-74" x="588.046875"/>
      <use xlink:href="#DejaVuSans-72" x="627.255859"/>
      <use xlink:href="#DejaVuSans-61" x="668.369141"/>
      <use xlink:href="#DejaVuSans-63" x="729.648438"/>
      <use xlink:href="#DejaVuSans-69" x="784.628906"/>
      <use xlink:href="#DejaVuSans-6a" x="812.412109"/>
      <use xlink:href="#DejaVuSans-61" x="840.195312"/>
     </g>
    </g>
    <g id="patch_36">
     <path d="M 50.003125 49.075 
L 70.003125 49.075 
L 70.003125 42.075 
L 50.003125 42.075 
z
" style="fill: #90ee90"/>
    </g>
    <g id="text_18">
     <!-- OCP koncentracija -->
     <g transform="translate(78.003125 49.075) scale(0.1 -0.1)">
      <defs>
       <path id="DejaVuSans-43" d="M 4122 4306 
L 4122 3641 
Q 3803 3938 3442 4084 
Q 3081 4231 2675 4231 
Q 1875 4231 1450 3742 
Q 1025 3253 1025 2328 
Q 1025 1406 1450 917 
Q 1875 428 2675 428 
Q 3081 428 3442 575 
Q 3803 722 4122 1019 
L 4122 359 
Q 3791 134 3420 21 
Q 3050 -91 2638 -91 
Q 1578 -91 968 557 
Q 359 1206 359 2328 
Q 359 3453 968 4101 
Q 1578 4750 2638 4750 
Q 3056 4750 3426 4639 
Q 3797 4528 4122 4306 
z
" transform="scale(0.015625)"/>
      </defs>
      <use xlink:href="#DejaVuSans-4f"/>
      <use xlink:href="#DejaVuSans-43" x="78.710938"/>
      <use xlink:href="#DejaVuSans-50" x="148.535156"/>
      <use xlink:href="#DejaVuSans-20" x="208.837891"/>
      <use xlink:href="#DejaVuSans-6b" x="240.625"/>
      <use xlink:href="#DejaVuSans-6f" x="294.910156"/>
      <use xlink:href="#DejaVuSans-6e" x="356.091797"/>
      <use xlink:href="#DejaVuSans-63" x="419.470703"/>
      <use xlink:href="#DejaVuSans-65" x="474.451172"/>
      <use xlink:href="#DejaVuSans-6e" x="535.974609"/>
      <use xlink:href="#DejaVuSans-74" x="599.353516"/>
      <use xlink:href="#DejaVuSans-72" x="638.5625"/>
      <use xlink:href="#DejaVuSans-61" x="679.675781"/>
      <use xlink:href="#DejaVuSans-63" x="740.955078"/>
      <use xlink:href="#DejaVuSans-69" x="795.935547"/>
      <use xlink:href="#DejaVuSans-6a" x="823.71875"/>
      <use xlink:href="#DejaVuSans-61" x="851.501953"/>
     </g>
    </g>
    <g id="patch_37">
     <path d="M 50.003125 63.753125 
L 70.003125 63.753125 
L 70.003125 56.753125 
L 50.003125 56.753125 
z
" style="fill: #fa8072"/>
    </g>
    <g id="text_19">
     <!-- PCB koncentracija -->
     <g transform="translate(78.003125 63.753125) scale(0.1 -0.1)">
      <use xlink:href="#DejaVuSans-50"/>
      <use xlink:href="#DejaVuSans-43" x="60.302734"/>
      <use xlink:href="#DejaVuSans-42" x="130.126953"/>
      <use xlink:href="#DejaVuSans-20" x="198.730469"/>
      <use xlink:href="#DejaVuSans-6b" x="230.517578"/>
      <use xlink:href="#DejaVuSans-6f" x="284.802734"/>
      <use xlink:href="#DejaVuSans-6e" x="345.984375"/>
      <use xlink:href="#DejaVuSans-63" x="409.363281"/>
      <use xlink:href="#DejaVuSans-65" x="464.34375"/>
      <use xlink:href="#DejaVuSans-6e" x="525.867188"/>
      <use xlink:href="#DejaVuSans-74" x="589.246094"/>
      <use xlink:href="#DejaVuSans-72" x="628.455078"/>
      <use xlink:href="#DejaVuSans-61" x="669.568359"/>
      <use xlink:href="#DejaVuSans-63" x="730.847656"/>
      <use xlink:href="#DejaVuSans-69" x="785.828125"/>
      <use xlink:href="#DejaVuSans-6a" x="813.611328"/>
      <use xlink:href="#DejaVuSans-61" x="841.394531"/>
     </g>
    </g>
    <g id="line2d_15">
     <path d="M 50.003125 74.93125 
L 60.003125 74.93125 
L 70.003125 74.93125 
" style="fill: none; stroke: #0000ff; stroke-width: 1.5; stroke-linecap: square"/>
     <defs>
      <path id="me9b27efedb" d="M 0 3 
C 0.795609 3 1.55874 2.683901 2.12132 2.12132 
C 2.683901 1.55874 3 0.795609 3 0 
C 3 -0.795609 2.683901 -1.55874 2.12132 -2.12132 
C 1.55874 -2.683901 0.795609 -3 0 -3 
C -0.795609 -3 -1.55874 -2.683901 -2.12132 -2.12132 
C -2.683901 -1.55874 -3 -0.795609 -3 0 
C -3 0.795609 -2.683901 1.55874 -2.12132 2.12132 
C -1.55874 2.683901 -0.795609 3 0 3 
z
" style="stroke: #0000ff"/>
     </defs>
     <g>
      <use xlink:href="#me9b27efedb" x="60.003125" y="74.93125" style="fill: #0000ff; stroke: #0000ff"/>
     </g>
    </g>
    <g id="text_20">
     <!-- PAH toksičnost -->
     <g transform="translate(78.003125 78.43125) scale(0.1 -0.1)">
      <use xlink:href="#DejaVuSans-50"/>
      <use xlink:href="#DejaVuSans-41" x="53.927734"/>
      <use xlink:href="#DejaVuSans-48" x="122.335938"/>
      <use xlink:href="#DejaVuSans-20" x="197.53125"/>
      <use xlink:href="#DejaVuSans-74" x="229.318359"/>
      <use xlink:href="#DejaVuSans-6f" x="268.527344"/>
      <use xlink:href="#DejaVuSans-6b" x="329.708984"/>
      <use xlink:href="#DejaVuSans-73" x="387.619141"/>
      <use xlink:href="#DejaVuSans-69" x="439.71875"/>
      <use xlink:href="#DejaVuSans-10d" x="467.501953"/>
      <use xlink:href="#DejaVuSans-6e" x="522.482422"/>
      <use xlink:href="#DejaVuSans-6f" x="585.861328"/>
      <use xlink:href="#DejaVuSans-73" x="647.042969"/>
      <use xlink:href="#DejaVuSans-74" x="699.142578"/>
     </g>
    </g>
    <g id="line2d_16">
     <path d="M 50.003125 89.609375 
L 60.003125 89.609375 
L 70.003125 89.609375 
" style="fill: none; stroke: #008000; stroke-width: 1.5; stroke-linecap: square"/>
     <defs>
      <path id="m9a5ab96fae" d="M 0 3 
C 0.795609 3 1.55874 2.683901 2.12132 2.12132 
C 2.683901 1.55874 3 0.795609 3 0 
C 3 -0.795609 2.683901 -1.55874 2.12132 -2.12132 
C 1.55874 -2.683901 0.795609 -3 0 -3 
C -0.795609 -3 -1.55874 -2.683901 -2.12132 -2.12132 
C -2.683901 -1.55874 -3 -0.795609 -3 0 
C -3 0.795609 -2.683901 1.55874 -2.12132 2.12132 
C -1.55874 2.683901 -0.795609 3 0 3 
z
" style="stroke: #008000"/>
     </defs>
     <g>
      <use xlink:href="#m9a5ab96fae" x="60.003125" y="89.609375" style="fill: #008000; stroke: #008000"/>
     </g>
    </g>
    <g id="text_21">
     <!-- OCP toksičnost -->
     <g transform="translate(78.003125 93.109375) scale(0.1 -0.1)">
      <use xlink:href="#DejaVuSans-4f"/>
      <use xlink:href="#DejaVuSans-43" x="78.710938"/>
      <use xlink:href="#DejaVuSans-50" x="148.535156"/>
      <use xlink:href="#DejaVuSans-20" x="208.837891"/>
      <use xlink:href="#DejaVuSans-74" x="240.625"/>
      <use xlink:href="#DejaVuSans-6f" x="279.833984"/>
      <use xlink:href="#DejaVuSans-6b" x="341.015625"/>
      <use xlink:href="#DejaVuSans-73" x="398.925781"/>
      <use xlink:href="#DejaVuSans-69" x="451.025391"/>
      <use xlink:href="#DejaVuSans-10d" x="478.808594"/>
      <use xlink:href="#DejaVuSans-6e" x="533.789062"/>
      <use xlink:href="#DejaVuSans-6f" x="597.167969"/>
      <use xlink:href="#DejaVuSans-73" x="658.349609"/>
      <use xlink:href="#DejaVuSans-74" x="710.449219"/>
     </g>
    </g>
    <g id="line2d_17">
     <path d="M 50.003125 104.2875 
L 60.003125 104.2875 
L 70.003125 104.2875 
" style="fill: none; stroke: #ff0000; stroke-width: 1.5; stroke-linecap: square"/>
     <defs>
      <path id="m09d39ca494" d="M 0 3 
C 0.795609 3 1.55874 2.683901 2.12132 2.12132 
C 2.683901 1.55874 3 0.795609 3 0 
C 3 -0.795609 2.683901 -1.55874 2.12132 -2.12132 
C 1.55874 -2.683901 0.795609 -3 0 -3 
C -0.795609 -3 -1.55874 -2.683901 -2.12132 -2.12132 
C -2.683901 -1.55874 -3 -0.795609 -3 0 
C -3 0.795609 -2.683901 1.55874 -2.12132 2.12132 
C -1.55874 2.683901 -0.795609 3 0 3 
z
" style="stroke: #ff0000"/>
     </defs>
     <g>
      <use xlink:href="#m09d39ca494" x="60.003125" y="104.2875" style="fill: #ff0000; stroke: #ff0000"/>
     </g>
    </g>
    <g id="text_22">
     <!-- PCB toksičnost -->
     <g transform="translate(78.003125 107.7875) scale(0.1 -0.1)">
      <use xlink:href="#DejaVuSans-50"/>
      <use xlink:href="#DejaVuSans-43" x="60.302734"/>
      <use xlink:href="#DejaVuSans-42" x="130.126953"/>
      <use xlink:href="#DejaVuSans-20" x="198.730469"/>
      <use xlink:href="#DejaVuSans-74" x="230.517578"/>
      <use xlink:href="#DejaVuSans-6f" x="269.726562"/>
      <use xlink:href="#DejaVuSans-6b" x="330.908203"/>
      <use xlink:href="#DejaVuSans-73" x="388.818359"/>
      <use xlink:href="#DejaVuSans-69" x="440.917969"/>
      <use xlink:href="#DejaVuSans-10d" x="468.701172"/>
      <use xlink:href="#DejaVuSans-6e" x="523.681641"/>
      <use xlink:href="#DejaVuSans-6f" x="587.060547"/>
      <use xlink:href="#DejaVuSans-73" x="648.242188"/>
      <use xlink:href="#DejaVuSans-74" x="700.341797"/>
     </g>
    </g>
   </g>
  </g>
  <g id="axes_2">
   <g id="matplotlib.axis_3">
    <g id="ytick_6">
     <g id="line2d_18">
      <defs>
       <path id="m1d2e0e048f" d="M 0 0 
L 3.5 0 
" style="stroke: #000000; stroke-width: 0.8"/>
      </defs>
      <g>
       <use xlink:href="#m1d2e0e048f" x="811.653125" y="179.14151" style="stroke: #000000; stroke-width: 0.8"/>
      </g>
     </g>
     <g id="text_23">
      <!-- 0 -->
      <g transform="translate(818.653125 182.940729) scale(0.1 -0.1)">
       <use xlink:href="#DejaVuSans-30"/>
      </g>
     </g>
    </g>
    <g id="ytick_7">
     <g id="line2d_19">
      <g>
       <use xlink:href="#m1d2e0e048f" x="811.653125" y="145.136869" style="stroke: #000000; stroke-width: 0.8"/>
      </g>
     </g>
     <g id="text_24">
      <!-- 1 -->
      <g transform="translate(818.653125 148.936087) scale(0.1 -0.1)">
       <use xlink:href="#DejaVuSans-31"/>
      </g>
     </g>
    </g>
    <g id="ytick_8">
     <g id="line2d_20">
      <g>
       <use xlink:href="#m1d2e0e048f" x="811.653125" y="111.132227" style="stroke: #000000; stroke-width: 0.8"/>
      </g>
     </g>
     <g id="text_25">
      <!-- 2 -->
      <g transform="translate(818.653125 114.931446) scale(0.1 -0.1)">
       <use xlink:href="#DejaVuSans-32"/>
      </g>
     </g>
    </g>
    <g id="ytick_9">
     <g id="line2d_21">
      <g>
       <use xlink:href="#m1d2e0e048f" x="811.653125" y="77.127585" style="stroke: #000000; stroke-width: 0.8"/>
      </g>
     </g>
     <g id="text_26">
      <!-- 3 -->
      <g transform="translate(818.653125 80.926804) scale(0.1 -0.1)">
       <defs>
        <path id="DejaVuSans-33" d="M 2597 2516 
Q 3050 2419 3304 2112 
Q 3559 1806 3559 1356 
Q 3559 666 3084 287 
Q 2609 -91 1734 -91 
Q 1441 -91 1130 -33 
Q 819 25 488 141 
L 488 750 
Q 750 597 1062 519 
Q 1375 441 1716 441 
Q 2309 441 2620 675 
Q 2931 909 2931 1356 
Q 2931 1769 2642 2001 
Q 2353 2234 1838 2234 
L 1294 2234 
L 1294 2753 
L 1863 2753 
Q 2328 2753 2575 2939 
Q 2822 3125 2822 3475 
Q 2822 3834 2567 4026 
Q 2313 4219 1838 4219 
Q 1578 4219 1281 4162 
Q 984 4106 628 3988 
L 628 4550 
Q 988 4650 1302 4700 
Q 1616 4750 1894 4750 
Q 2613 4750 3031 4423 
Q 3450 4097 3450 3541 
Q 3450 3153 3228 2886 
Q 3006 2619 2597 2516 
z
" transform="scale(0.015625)"/>
       </defs>
       <use xlink:href="#DejaVuSans-33"/>
      </g>
     </g>
    </g>
    <g id="ytick_10">
     <g id="line2d_22">
      <g>
       <use xlink:href="#m1d2e0e048f" x="811.653125" y="43.122944" style="stroke: #000000; stroke-width: 0.8"/>
      </g>
     </g>
     <g id="text_27">
      <!-- 4 -->
      <g transform="translate(818.653125 46.922163) scale(0.1 -0.1)">
       <defs>
        <path id="DejaVuSans-34" d="M 2419 4116 
L 825 1625 
L 2419 1625 
L 2419 4116 
z
M 2253 4666 
L 3047 4666 
L 3047 1625 
L 3713 1625 
L 3713 1100 
L 3047 1100 
L 3047 0 
L 2419 0 
L 2419 1100 
L 313 1100 
L 313 1709 
L 2253 4666 
z
" transform="scale(0.015625)"/>
       </defs>
       <use xlink:href="#DejaVuSans-34"/>
      </g>
     </g>
    </g>
    <g id="text_28">
     <!-- Prosječna toksičnost TUsed -->
     <g style="fill: #d62728" transform="translate(837.014063 170.490625) rotate(-90) scale(0.1 -0.1)">
      <defs>
       <path id="DejaVuSans-54" d="M -19 4666 
L 3928 4666 
L 3928 4134 
L 2272 4134 
L 2272 0 
L 1638 0 
L 1638 4134 
L -19 4134 
L -19 4666 
z
" transform="scale(0.015625)"/>
       <path id="DejaVuSans-55" d="M 556 4666 
L 1191 4666 
L 1191 1831 
Q 1191 1081 1462 751 
Q 1734 422 2344 422 
Q 2950 422 3222 751 
Q 3494 1081 3494 1831 
L 3494 4666 
L 4128 4666 
L 4128 1753 
Q 4128 841 3676 375 
Q 3225 -91 2344 -91 
Q 1459 -91 1007 375 
Q 556 841 556 1753 
L 556 4666 
z
" transform="scale(0.015625)"/>
      </defs>
      <use xlink:href="#DejaVuSans-50"/>
      <use xlink:href="#DejaVuSans-72" x="58.552734"/>
      <use xlink:href="#DejaVuSans-6f" x="97.416016"/>
      <use xlink:href="#DejaVuSans-73" x="158.597656"/>
      <use xlink:href="#DejaVuSans-6a" x="210.697266"/>
      <use xlink:href="#DejaVuSans-65" x="238.480469"/>
      <use xlink:href="#DejaVuSans-10d" x="300.003906"/>
      <use xlink:href="#DejaVuSans-6e" x="354.984375"/>
      <use xlink:href="#DejaVuSans-61" x="418.363281"/>
      <use xlink:href="#DejaVuSans-20" x="479.642578"/>
      <use xlink:href="#DejaVuSans-74" x="511.429688"/>
      <use xlink:href="#DejaVuSans-6f" x="550.638672"/>
      <use xlink:href="#DejaVuSans-6b" x="611.820312"/>
      <use xlink:href="#DejaVuSans-73" x="669.730469"/>
      <use xlink:href="#DejaVuSans-69" x="721.830078"/>
      <use xlink:href="#DejaVuSans-10d" x="749.613281"/>
      <use xlink:href="#DejaVuSans-6e" x="804.59375"/>
      <use xlink:href="#DejaVuSans-6f" x="867.972656"/>
      <use xlink:href="#DejaVuSans-73" x="929.154297"/>
      <use xlink:href="#DejaVuSans-74" x="981.253906"/>
      <use xlink:href="#DejaVuSans-20" x="1020.462891"/>
      <use xlink:href="#DejaVuSans-54" x="1052.25"/>
      <use xlink:href="#DejaVuSans-55" x="1113.333984"/>
      <use xlink:href="#DejaVuSans-73" x="1186.527344"/>
      <use xlink:href="#DejaVuSans-65" x="1238.626953"/>
      <use xlink:href="#DejaVuSans-64" x="1300.150391"/>
     </g>
    </g>
    <g id="text_29">
     <!-- 1e−6 -->
     <g transform="translate(784.395313 14.798437) scale(0.1 -0.1)">
      <defs>
       <path id="DejaVuSans-2212" d="M 678 2272 
L 4684 2272 
L 4684 1741 
L 678 1741 
L 678 2272 
z
" transform="scale(0.015625)"/>
       <path id="DejaVuSans-36" d="M 2113 2584 
Q 1688 2584 1439 2293 
Q 1191 2003 1191 1497 
Q 1191 994 1439 701 
Q 1688 409 2113 409 
Q 2538 409 2786 701 
Q 3034 994 3034 1497 
Q 3034 2003 2786 2293 
Q 2538 2584 2113 2584 
z
M 3366 4563 
L 3366 3988 
Q 3128 4100 2886 4159 
Q 2644 4219 2406 4219 
Q 1781 4219 1451 3797 
Q 1122 3375 1075 2522 
Q 1259 2794 1537 2939 
Q 1816 3084 2150 3084 
Q 2853 3084 3261 2657 
Q 3669 2231 3669 1497 
Q 3669 778 3244 343 
Q 2819 -91 2113 -91 
Q 1303 -91 875 529 
Q 447 1150 447 2328 
Q 447 3434 972 4092 
Q 1497 4750 2381 4750 
Q 2619 4750 2861 4703 
Q 3103 4656 3366 4563 
z
" transform="scale(0.015625)"/>
      </defs>
      <use xlink:href="#DejaVuSans-31"/>
      <use xlink:href="#DejaVuSans-65" x="63.623047"/>
      <use xlink:href="#DejaVuSans-2212" x="125.146484"/>
      <use xlink:href="#DejaVuSans-36" x="208.935547"/>
     </g>
    </g>
   </g>
   <g id="line2d_23">
    <path d="M 88.693952 164.491342 
L 173.102495 175.742013 
L 257.511038 176.682027 
L 341.919582 177.344414 
L 426.328125 176.236522 
L 510.736668 25.481392 
L 595.145212 176.360597 
L 679.553755 91.519748 
L 763.962298 169.110982 
" clip-path="url(#p22491c1701)" style="fill: none; stroke: #0000ff; stroke-width: 1.5; stroke-linecap: square"/>
    <g clip-path="url(#p22491c1701)">
     <use xlink:href="#me9b27efedb" x="88.693952" y="164.491342" style="fill: #0000ff; stroke: #0000ff"/>
     <use xlink:href="#me9b27efedb" x="173.102495" y="175.742013" style="fill: #0000ff; stroke: #0000ff"/>
     <use xlink:href="#me9b27efedb" x="257.511038" y="176.682027" style="fill: #0000ff; stroke: #0000ff"/>
     <use xlink:href="#me9b27efedb" x="341.919582" y="177.344414" style="fill: #0000ff; stroke: #0000ff"/>
     <use xlink:href="#me9b27efedb" x="426.328125" y="176.236522" style="fill: #0000ff; stroke: #0000ff"/>
     <use xlink:href="#me9b27efedb" x="510.736668" y="25.481392" style="fill: #0000ff; stroke: #0000ff"/>
     <use xlink:href="#me9b27efedb" x="595.145212" y="176.360597" style="fill: #0000ff; stroke: #0000ff"/>
     <use xlink:href="#me9b27efedb" x="679.553755" y="91.519748" style="fill: #0000ff; stroke: #0000ff"/>
     <use xlink:href="#me9b27efedb" x="763.962298" y="169.110982" style="fill: #0000ff; stroke: #0000ff"/>
    </g>
   </g>
   <g id="line2d_24">
    <path d="M 88.693952 178.100189 
L 173.102495 178.936268 
L 257.511038 179.046185 
L 341.919582 179.125337 
L 426.328125 178.980544 
L 510.736668 177.066563 
L 595.145212 179.017447 
L 679.553755 178.912485 
L 763.962298 178.997688 
" clip-path="url(#p22491c1701)" style="fill: none; stroke: #008000; stroke-width: 1.5; stroke-linecap: square"/>
    <g clip-path="url(#p22491c1701)">
     <use xlink:href="#m9a5ab96fae" x="88.693952" y="178.100189" style="fill: #008000; stroke: #008000"/>
     <use xlink:href="#m9a5ab96fae" x="173.102495" y="178.936268" style="fill: #008000; stroke: #008000"/>
     <use xlink:href="#m9a5ab96fae" x="257.511038" y="179.046185" style="fill: #008000; stroke: #008000"/>
     <use xlink:href="#m9a5ab96fae" x="341.919582" y="179.125337" style="fill: #008000; stroke: #008000"/>
     <use xlink:href="#m9a5ab96fae" x="426.328125" y="178.980544" style="fill: #008000; stroke: #008000"/>
     <use xlink:href="#m9a5ab96fae" x="510.736668" y="177.066563" style="fill: #008000; stroke: #008000"/>
     <use xlink:href="#m9a5ab96fae" x="595.145212" y="179.017447" style="fill: #008000; stroke: #008000"/>
     <use xlink:href="#m9a5ab96fae" x="679.553755" y="178.912485" style="fill: #008000; stroke: #008000"/>
     <use xlink:href="#m9a5ab96fae" x="763.962298" y="178.997688" style="fill: #008000; stroke: #008000"/>
    </g>
   </g>
   <g id="line2d_25">
    <path d="M 88.693952 179.132919 
L 173.102495 179.140335 
L 257.511038 179.134846 
L 341.919582 179.131006 
L 426.328125 179.135327 
L 510.736668 179.090984 
L 595.145212 179.140483 
L 679.553755 179.138808 
L 763.962298 179.137442 
" clip-path="url(#p22491c1701)" style="fill: none; stroke: #ff0000; stroke-width: 1.5; stroke-linecap: square"/>
    <g clip-path="url(#p22491c1701)">
     <use xlink:href="#m09d39ca494" x="88.693952" y="179.132919" style="fill: #ff0000; stroke: #ff0000"/>
     <use xlink:href="#m09d39ca494" x="173.102495" y="179.140335" style="fill: #ff0000; stroke: #ff0000"/>
     <use xlink:href="#m09d39ca494" x="257.511038" y="179.134846" style="fill: #ff0000; stroke: #ff0000"/>
     <use xlink:href="#m09d39ca494" x="341.919582" y="179.131006" style="fill: #ff0000; stroke: #ff0000"/>
     <use xlink:href="#m09d39ca494" x="426.328125" y="179.135327" style="fill: #ff0000; stroke: #ff0000"/>
     <use xlink:href="#m09d39ca494" x="510.736668" y="179.090984" style="fill: #ff0000; stroke: #ff0000"/>
     <use xlink:href="#m09d39ca494" x="595.145212" y="179.140483" style="fill: #ff0000; stroke: #ff0000"/>
     <use xlink:href="#m09d39ca494" x="679.553755" y="179.138808" style="fill: #ff0000; stroke: #ff0000"/>
     <use xlink:href="#m09d39ca494" x="763.962298" y="179.137442" style="fill: #ff0000; stroke: #ff0000"/>
    </g>
   </g>
   <g id="patch_38">
    <path d="M 41.003125 186.823437 
L 41.003125 17.798437 
" style="fill: none; stroke: #000000; stroke-width: 0.8; stroke-linejoin: miter; stroke-linecap: square"/>
   </g>
   <g id="patch_39">
    <path d="M 811.653125 186.823437 
L 811.653125 17.798437 
" style="fill: none; stroke: #000000; stroke-width: 0.8; stroke-linejoin: miter; stroke-linecap: square"/>
   </g>
   <g id="patch_40">
    <path d="M 41.003125 186.823437 
L 811.653125 186.823437 
" style="fill: none; stroke: #000000; stroke-width: 0.8; stroke-linejoin: miter; stroke-linecap: square"/>
   </g>
   <g id="patch_41">
    <path d="M 41.003125 17.798437 
L 811.653125 17.798437 
" style="fill: none; stroke: #000000; stroke-width: 0.8; stroke-linejoin: miter; stroke-linecap: square"/>
   </g>
  </g>
 </g>
 <defs>
  <clipPath id="p22491c1701">
   <rect x="41.003125" y="17.798437" width="770.65" height="169.025"/>
  </clipPath>
 </defs>
</svg>
